<svg viewBox="0 0 128 128" xmlns="http://www.w3.org/2000/svg">
  <rect width="128" height="128" rx="20" fill="#1a1a2e"/>
  <rect x="12" y="12" width="104" height="104" rx="12" fill="#16213e" stroke="#6c63ff" stroke-width="2"/>
  <line x1="64" y1="20" x2="64" y2="108" stroke="#6c63ff" stroke-width="2" stroke-dasharray="4 3"/>
  <rect x="22" y="30" width="28" height="3" rx="1.5" fill="#8a8a96" opacity="0.6"/>
  <rect x="22" y="40" width="20" height="3" rx="1.5" fill="#6c63ff" opacity="0.8"/>
  <rect x="22" y="50" width="32" height="3" rx="1.5" fill="#8a8a96" opacity="0.4"/>
  <rect x="22" y="60" width="24" height="3" rx="1.5" fill="#8a8a96" opacity="0.6"/>
  <rect x="22" y="70" width="30" height="3" rx="1.5" fill="#6c63ff" opacity="0.5"/>
  <rect x="22" y="80" width="18" height="3" rx="1.5" fill="#8a8a96" opacity="0.4"/>
  <rect x="22" y="90" width="26" height="3" rx="1.5" fill="#8a8a96" opacity="0.6"/>
  <text x="20" y="43" font-family="monospace" font-size="6" fill="#6c63ff" opacity="0.9">#</text>
  <text x="18" y="73" font-family="monospace" font-size="6" fill="#6c63ff" opacity="0.7">##</text>
  <rect x="74" y="28" width="26" height="5" rx="2" fill="#e8e6e3" opacity="0.9"/>
  <rect x="74" y="40" width="22" height="2.5" rx="1" fill="#8a8a96" opacity="0.5"/>
  <rect x="74" y="47" width="24" height="2.5" rx="1" fill="#8a8a96" opacity="0.4"/>
  <rect x="74" y="54" width="20" height="2.5" rx="1" fill="#8a8a96" opacity="0.5"/>
  <rect x="74" y="66" width="20" height="4" rx="2" fill="#e8e6e3" opacity="0.7"/>
  <rect x="74" y="76" width="24" height="2.5" rx="1" fill="#8a8a96" opacity="0.4"/>
  <rect x="74" y="83" width="22" height="2.5" rx="1" fill="#8a8a96" opacity="0.5"/>
  <rect x="74" y="90" width="18" height="2.5" rx="1" fill="#8a8a96" opacity="0.4"/>
</svg>
